<?xml version="1.0" encoding="UTF-8" standalone="no"?>
<!-- Generator: Adobe Illustrator 28.2.0, SVG Export Plug-In . SVG Version: 6.00 Build 0)  -->

<svg
   version="1.1"
   id="Layer_1"
   x="0px"
   y="0px"
   viewBox="0 0 550.00001 550.00002"
   xml:space="preserve"
   sodipodi:docname="D79-Marketing-Large-Logo-wr.svg"
   inkscape:version="1.1.2 (0a00cf5339, 2022-02-04)"
   width="550"
   height="550"
   xmlns:inkscape="http://www.inkscape.org/namespaces/inkscape"
   xmlns:sodipodi="http://sodipodi.sourceforge.net/DTD/sodipodi-0.dtd"
   xmlns="http://www.w3.org/2000/svg"
   xmlns:svg="http://www.w3.org/2000/svg"><defs
   id="defs37" /><sodipodi:namedview
   id="namedview35"
   pagecolor="#ffffff"
   bordercolor="#666666"
   borderopacity="1.0"
   inkscape:pageshadow="2"
   inkscape:pageopacity="0.0"
   inkscape:pagecheckerboard="0"
   showgrid="true"
   inkscape:zoom="2.4314011"
   inkscape:cx="133.46214"
   inkscape:cy="174.79633"
   inkscape:window-width="3840"
   inkscape:window-height="2123"
   inkscape:window-x="0"
   inkscape:window-y="0"
   inkscape:window-maximized="1"
   inkscape:current-layer="g20"
   width="550px"><sodipodi:guide
     position="0,550.00001"
     orientation="0,550"
     id="guide335" /><sodipodi:guide
     position="550.00001,550.00001"
     orientation="550,0"
     id="guide337" /><sodipodi:guide
     position="550.00001,0"
     orientation="0,-550"
     id="guide339" /><sodipodi:guide
     position="0,0"
     orientation="-550,0"
     id="guide341" /><sodipodi:guide
     position="0,550.00001"
     orientation="0,550"
     id="guide343" /><sodipodi:guide
     position="550.00001,550.00001"
     orientation="550,0"
     id="guide345" /><sodipodi:guide
     position="550.00001,0"
     orientation="0,-550"
     id="guide347" /><sodipodi:guide
     position="0,0"
     orientation="-550,0"
     id="guide349" /><inkscape:grid
     type="xygrid"
     id="grid351"
     spacingx="10"
     spacingy="10"
     snapvisiblegridlinesonly="false"
     enabled="true" /></sodipodi:namedview>
<g
   id="g20"
   style="fill:#ffffff"
   transform="translate(0,100.57782)">
	<path
   d="M 120,325.00093 H 84.7 v -4 c 1.3,0 2.9,-0.2 4.9,-0.4 2,-0.2 3.4,-0.5 4.1,-1 1.2,-0.7 2,-1.5 2.6,-2.5 0.5,-0.9 0.8,-2.1 0.8,-3.5 v -58.1 h -0.8 l -27.3,68.1 h -2.8 l -26,-69.5 h -0.7 v 47.7 c 0,4.6 0.3,8.1 0.9,10.5 0.6,2.4 1.5,4.1 2.7,5.2 0.8,0.8 2.5,1.5 5.1,2.3 2.6,0.7 4.3,1.1 5.1,1.1 v 4 H 21 v -4 c 1.7,-0.1 3.5,-0.4 5.3,-0.8 1.9,-0.4 3.3,-1 4.3,-1.9 1.3,-1.1 2.2,-2.7 2.7,-4.8 0.5,-2.2 0.7,-5.8 0.7,-10.9 v -40.9 c 0,-2.4 -0.3,-4.3 -0.8,-5.8 -0.6,-1.5 -1.4,-2.7 -2.4,-3.7 -1.2,-1 -2.6,-1.8 -4.3,-2.3 -1.7,-0.5 -3.4,-0.8 -5,-0.8 v -4 h 27.2 l 22.9,60 19.5,-50.2 c 0.7,-1.8 1.3,-3.8 1.8,-5.8 0.5,-2 0.8,-3.4 0.8,-4 h 26.1 v 4 c -1.1,0 -2.4,0.2 -4,0.5 -1.6,0.3 -2.8,0.6 -3.6,0.8 -1.3,0.5 -2.1,1.2 -2.6,2.3 -0.5,1.1 -0.7,2.2 -0.7,3.4 v 57.6 c 0,1.3 0.2,2.4 0.7,3.3 0.5,0.9 1.3,1.7 2.6,2.4 0.7,0.4 1.9,0.7 3.6,1 1.7,0.3 3.1,0.5 4.1,0.5 v 4.2 z"
   id="path2"
   style="fill:#ffffff" />
	<path
   d="m 178.4,325.00093 h -23.3 v -2.8 c 2.1,-0.1 3.8,-0.4 5.1,-0.8 1.4,-0.4 2,-0.9 2,-1.5 0,-0.2 0,-0.5 -0.1,-0.9 -0.1,-0.3 -0.1,-0.6 -0.2,-0.9 l -4.6,-12.5 h -19.6 c -0.7,1.8 -1.3,3.4 -1.8,4.8 -0.5,1.4 -0.9,2.6 -1.2,3.8 -0.3,1.1 -0.6,2 -0.7,2.8 -0.1,0.7 -0.2,1.3 -0.2,1.7 0,1.1 0.8,1.9 2.5,2.4 1.7,0.6 3.5,0.9 5.6,1 v 2.8 h -21.1 v -2.8 c 0.7,-0.1 1.5,-0.2 2.6,-0.5 1,-0.2 1.9,-0.6 2.5,-1 1.1,-0.7 1.9,-1.5 2.4,-2.2 0.6,-0.8 1.1,-1.8 1.7,-3.2 2.8,-7 5.9,-14.9 9.3,-23.7 3.4,-8.8 6.4,-16.5 9.1,-23.4 h 3.2 l 18.6,48.3 c 0.4,1 0.8,1.9 1.3,2.5 0.5,0.6 1.2,1.2 2.1,1.9 0.6,0.4 1.4,0.7 2.4,0.9 1,0.3 1.8,0.4 2.4,0.4 z m -22.5,-22.9 -8.5,-21.7 -8.4,21.7 z"
   id="path4"
   style="fill:#ffffff" />
	<path
   d="m 232.9,325.00093 h -15.1 c -3.3,-5.2 -6.3,-9.8 -9,-13.6 -2.7,-3.8 -5.6,-7.7 -8.8,-11.8 h -5.7 v 17.7 c 0,0.9 0.1,1.7 0.4,2.4 0.3,0.7 0.9,1.2 1.9,1.6 0.5,0.2 1.3,0.4 2.5,0.5 1.2,0.2 2.2,0.3 3,0.3 v 2.8 h -23.7 v -2.8 c 0.6,-0.1 1.5,-0.1 2.7,-0.3 1.2,-0.1 2,-0.3 2.5,-0.5 0.8,-0.3 1.4,-0.8 1.7,-1.5 0.3,-0.7 0.5,-1.5 0.5,-2.5 v -40.5 c 0,-0.9 -0.1,-1.7 -0.4,-2.4 -0.3,-0.7 -0.9,-1.2 -1.9,-1.6 -0.7,-0.2 -1.5,-0.5 -2.6,-0.6 -1.1,-0.2 -1.9,-0.3 -2.7,-0.4 v -2.8 H 204 c 2.4,0 4.6,0.2 6.7,0.7 2.1,0.5 4,1.3 5.6,2.3 1.6,1.1 2.9,2.4 3.9,4.1 1,1.7 1.5,3.7 1.5,6.1 0,2.2 -0.3,4.1 -1,5.7 -0.7,1.7 -1.6,3.1 -2.9,4.3 -1.2,1.1 -2.6,2.1 -4.3,2.9 -1.7,0.8 -3.5,1.5 -5.5,2.1 2.8,3.7 5.1,6.7 6.9,9.2 1.8,2.5 4.1,5.5 6.7,9.1 1.2,1.6 2.2,2.7 3.1,3.5 0.9,0.7 1.9,1.4 2.8,1.8 0.7,0.3 1.5,0.6 2.6,0.8 1,0.2 1.9,0.3 2.6,0.3 v 3.1 z m -20.7,-41.7 c 0,-3.4 -1,-6.1 -2.9,-8.1 -1.9,-2 -4.7,-3 -8.2,-3 h -6.7 v 24 h 5.2 c 3.6,0 6.6,-1.2 9.1,-3.5 2.2,-2.3 3.5,-5.4 3.5,-9.4 z"
   id="path6"
   style="fill:#ffffff" />
	<path
   d="m 287.3,325.00093 h -15.7 c -3,-4.7 -6.4,-9.3 -10.1,-13.9 -3.7,-4.6 -7.6,-9.1 -11.6,-13.4 h -1 v 19.5 c 0,0.9 0.2,1.6 0.5,2.3 0.3,0.7 0.9,1.2 1.8,1.7 0.4,0.2 1.2,0.4 2.3,0.7 1.1,0.3 2.1,0.4 2.9,0.4 v 2.8 h -23.2 v -2.8 c 0.6,-0.1 1.5,-0.1 2.6,-0.2 1.2,-0.1 2,-0.3 2.4,-0.5 0.8,-0.3 1.4,-0.8 1.7,-1.5 0.4,-0.7 0.5,-1.5 0.5,-2.4 v -40.4 c 0,-0.9 -0.2,-1.7 -0.5,-2.3 -0.3,-0.7 -0.9,-1.2 -1.8,-1.6 -0.7,-0.3 -1.6,-0.6 -2.5,-0.9 -1,-0.3 -1.8,-0.4 -2.6,-0.5 v -2.8 h 23.2 v 2.8 c -0.7,0 -1.7,0.1 -2.8,0.4 -1.1,0.2 -1.9,0.4 -2.4,0.6 -0.9,0.3 -1.5,0.8 -1.8,1.6 -0.3,0.7 -0.5,1.5 -0.5,2.4 v 19.3 h 0.8 c 2.4,-2 4.7,-4.1 7,-6.2 2.3,-2.2 4.4,-4.3 6.2,-6.5 2.1,-2.4 3.6,-4.3 4.6,-5.7 1,-1.4 1.4,-2.7 1.4,-3.8 0,-0.4 -0.2,-0.7 -0.7,-1 -0.5,-0.3 -1,-0.5 -1.7,-0.6 -0.7,-0.2 -1.4,-0.3 -2,-0.3 -0.6,0 -1.1,-0.1 -1.4,-0.1 v -2.8 h 21 v 2.8 c -0.1,0 -0.3,0 -0.5,0 -0.3,0 -0.6,0.1 -0.9,0.1 -0.4,0 -0.7,0.1 -1.1,0.2 -0.4,0.1 -0.8,0.2 -1.4,0.3 -0.9,0.2 -1.9,0.5 -2.9,1 -1,0.5 -1.8,1 -2.4,1.7 -2.7,3.1 -5.5,6.3 -8.5,9.5 -2.9,3.3 -5.9,6.3 -8.7,9 4,4.5 7.3,8.4 9.9,11.7 2.6,3.3 5.4,6.7 8.3,10.4 1.1,1.4 2.3,2.6 3.4,3.4 1.1,0.9 2.1,1.5 2.9,1.9 0.7,0.3 1.5,0.6 2.6,0.8 1,0.2 1.9,0.3 2.6,0.3 v 2.6 z"
   id="path8"
   style="fill:#ffffff" />
	<path
   d="m 334.1,308.50093 -1.1,16.5 h -46.4 v -2.8 c 0.8,-0.1 1.8,-0.2 3.2,-0.3 1.4,-0.1 2.2,-0.3 2.6,-0.5 0.8,-0.4 1.4,-0.9 1.8,-1.5 0.3,-0.6 0.5,-1.4 0.5,-2.4 v -40.2 c 0,-0.9 -0.1,-1.6 -0.4,-2.3 -0.3,-0.7 -0.9,-1.2 -1.8,-1.6 -0.7,-0.3 -1.7,-0.6 -2.9,-0.9 -1.2,-0.3 -2.1,-0.4 -2.9,-0.5 v -2.8 H 330 v 13.3 h -3 c -0.5,-2 -1.7,-4.1 -3.4,-6.4 -1.8,-2.2 -3.4,-3.5 -5,-3.7 -0.8,-0.1 -1.8,-0.2 -2.9,-0.2 -1.1,0 -2.4,-0.1 -3.9,-0.1 H 303 v 22.2 h 6.3 c 2,0 3.5,-0.2 4.4,-0.6 0.9,-0.4 1.8,-1 2.5,-1.9 0.6,-0.8 1.1,-1.8 1.5,-3.1 0.4,-1.3 0.7,-2.5 0.8,-3.6 h 3 v 21.9 h -3 c -0.1,-1.3 -0.4,-2.6 -0.8,-4 -0.5,-1.4 -0.9,-2.4 -1.4,-3.1 -0.8,-1 -1.7,-1.7 -2.8,-2 -1,-0.3 -2.4,-0.5 -4.1,-0.5 H 303 v 16.8 c 0,1.7 0.1,3 0.4,4 0.2,1 0.7,1.7 1.4,2.2 0.7,0.5 1.6,0.8 2.8,1 1.2,0.2 2.9,0.2 5,0.2 0.9,0 2,0 3.4,0 1.4,0 2.6,-0.1 3.6,-0.2 1,-0.1 2,-0.3 3.1,-0.6 1.1,-0.3 1.8,-0.6 2.3,-1.1 1.2,-1.3 2.5,-3.2 3.8,-5.7 1.3,-2.6 2.2,-4.4 2.5,-5.7 h 2.8 z"
   id="path10"
   style="fill:#ffffff" />
	<path
   d="m 383.3,284.20093 h -2.7 c -0.2,-0.9 -0.7,-2.1 -1.3,-3.4 -0.6,-1.3 -1.3,-2.5 -2.1,-3.7 -0.8,-1.2 -1.7,-2.3 -2.6,-3.2 -0.9,-0.9 -1.8,-1.4 -2.7,-1.6 -0.8,-0.1 -1.8,-0.2 -3.1,-0.2 -1.2,-0.1 -2.4,-0.1 -3.4,-0.1 h -2.3 v 44.7 c 0,0.9 0.2,1.7 0.6,2.4 0.4,0.7 1,1.3 1.9,1.7 0.5,0.2 1.5,0.4 3,0.7 1.5,0.3 2.7,0.5 3.5,0.5 v 2.8 h -26.4 v -2.8 c 0.7,-0.1 1.9,-0.2 3.4,-0.3 1.5,-0.2 2.6,-0.4 3.1,-0.6 0.9,-0.3 1.5,-0.8 1.9,-1.5 0.4,-0.6 0.6,-1.5 0.6,-2.6 v -45.1 h -2.3 c -0.8,0 -1.8,0 -3,0.1 -1.2,0 -2.4,0.1 -3.5,0.3 -0.9,0.1 -1.8,0.6 -2.7,1.6 -0.9,0.9 -1.8,2 -2.6,3.2 -0.8,1.2 -1.5,2.4 -2.1,3.8 -0.6,1.3 -1,2.4 -1.3,3.3 h -2.8 v -15.2 h 48.8 v 15.2 z"
   id="path12"
   style="fill:#ffffff" />
	<path
   d="M 410.2,325.00093 H 385 v -2.8 c 0.7,-0.1 1.7,-0.1 3.1,-0.2 1.3,-0.1 2.3,-0.3 2.8,-0.5 0.9,-0.3 1.5,-0.8 1.9,-1.4 0.4,-0.6 0.6,-1.4 0.6,-2.5 v -40.5 c 0,-0.9 -0.1,-1.7 -0.4,-2.3 -0.3,-0.6 -1,-1.1 -2,-1.6 -0.8,-0.3 -1.8,-0.6 -3,-0.9 -1.2,-0.3 -2.2,-0.4 -2.9,-0.5 v -2.8 h 25.2 v 2.8 c -0.8,0 -1.8,0.1 -2.9,0.3 -1.1,0.2 -2.1,0.4 -3,0.6 -1,0.3 -1.7,0.8 -2,1.5 -0.3,0.7 -0.5,1.5 -0.5,2.4 v 40.5 c 0,0.9 0.2,1.6 0.6,2.3 0.4,0.7 1,1.2 2,1.6 0.6,0.2 1.5,0.4 2.7,0.7 1.2,0.3 2.3,0.4 3.2,0.4 v 2.9 z"
   id="path14"
   style="fill:#ffffff" />
	<path
   d="m 472.6,271.80093 c -0.7,0 -1.9,0.2 -3.4,0.6 -1.5,0.4 -2.6,0.8 -3.3,1.2 -0.9,0.7 -1.6,1.9 -1.9,3.8 -0.3,1.9 -0.5,4.2 -0.5,7.1 v 41 h -3.4 l -33.9,-45.8 v 28.9 c 0,3.2 0.2,5.7 0.6,7.5 0.4,1.7 1,3 1.9,3.7 0.6,0.6 1.9,1.1 3.7,1.6 1.9,0.5 3.1,0.8 3.7,0.8 v 2.8 h -22.9 v -2.8 c 0.7,-0.1 1.9,-0.3 3.6,-0.8 1.7,-0.5 2.7,-0.9 3.2,-1.2 0.9,-0.7 1.6,-1.9 1.9,-3.4 0.3,-1.5 0.5,-4.1 0.5,-7.7 v -27.6 c 0,-1.2 -0.2,-2.4 -0.6,-3.6 -0.4,-1.2 -1,-2.1 -1.7,-2.8 -0.9,-0.9 -2.2,-1.6 -3.8,-2.2 -1.6,-0.6 -2.9,-1 -3.9,-1 v -2.8 h 16 l 31.4,42.6 v -26.6 c 0,-3.3 -0.2,-5.8 -0.6,-7.5 -0.4,-1.7 -1,-2.9 -1.8,-3.5 -0.7,-0.5 -1.9,-1 -3.6,-1.5 -1.7,-0.5 -2.9,-0.7 -3.8,-0.8 v -2.8 h 22.7 v 2.8 z"
   id="path16"
   style="fill:#ffffff" />
	<path
   d="m 529.2,302.70093 c -0.6,0.1 -1.5,0.2 -2.5,0.4 -1.1,0.2 -1.9,0.4 -2.6,0.7 -0.8,0.4 -1.3,1 -1.7,1.7 -0.3,0.7 -0.5,1.6 -0.5,2.5 v 4.3 c 0,3.2 0,5.3 0.1,6.4 0,1.1 0.1,2 0.1,2.7 -3.5,1.6 -7,2.8 -10.4,3.6 -3.5,0.8 -6.9,1.3 -10.2,1.3 -3.6,0 -7,-0.7 -10.3,-2 -3.3,-1.3 -6.2,-3.2 -8.7,-5.7 -2.5,-2.5 -4.5,-5.5 -6,-9.1 -1.5,-3.6 -2.2,-7.6 -2.2,-12 0,-4.3 0.7,-8.2 2.1,-11.9 1.4,-3.6 3.4,-6.8 6,-9.5 2.5,-2.6 5.5,-4.7 8.9,-6.1 3.5,-1.5 7.2,-2.2 11.1,-2.2 3.2,0 5.9,0.4 8.2,1.1 2.3,0.8 4.4,1.7 6.2,2.8 l 1.6,-2.7 h 3.2 l 0.4,19.6 h -3.2 c -0.6,-2.2 -1.2,-4.3 -2.1,-6.4 -0.8,-2.1 -1.9,-4 -3.2,-5.6 -1.3,-1.7 -2.9,-3 -4.7,-4 -1.9,-1 -4.1,-1.5 -6.7,-1.5 -2.8,0 -5.3,0.6 -7.5,1.7 -2.2,1.1 -4.1,2.8 -5.8,5.1 -1.6,2.2 -2.8,4.9 -3.7,8.2 -0.9,3.3 -1.3,6.9 -1.3,10.9 0,3.5 0.4,6.9 1.3,10 0.9,3.1 2.1,5.9 3.7,8.1 1.6,2.3 3.7,4.2 6.1,5.5 2.5,1.3 5.2,2 8.3,2 2.3,0 4.4,-0.4 6.3,-1.1 1.9,-0.7 3.3,-1.5 4,-2.2 0.2,-1.4 0.3,-2.7 0.3,-4.1 0,-1.4 0,-2.6 0,-3.5 v -3.1 c 0,-1.1 -0.2,-2.1 -0.5,-2.9 -0.3,-0.9 -0.9,-1.5 -1.9,-1.9 -0.9,-0.4 -2,-0.7 -3.5,-0.9 -1.5,-0.2 -2.6,-0.3 -3.5,-0.4 v -2.9 h 24.5 v 3.1 z"
   id="path18"
   style="fill:#ffffff" />
</g>
<g
   id="g32"
   style="fill:#ffffff"
   transform="translate(0,105.07875)">
	<path
   d="m 323.2,127.9 c 4.4,-7.1 9,-14.5 13.7,-22.3 l 5.4,-9.8 c 0,-0.1 0,-0.1 0,-0.2 -7.1,11.9 -13.5,22.8 -19.1,32.3 z"
   id="path22"
   style="fill:#ffffff" />
	<path
   d="M 244.5,32.6 V 58.2 C 230.7,51.9 214.2,48.4 195.4,48.4 H 93.9 v 3.4 l 6,0.3 c 12.6,0.6 15.4,4 15.4,43.2 v 98.9 c 0,39.2 -2.9,42.6 -15.4,43.2 l -6,0.3 v 3.4 h 101.5 c 32.6,0 58.3,-10.9 75.7,-29 4,-21.6 17.5,-46.2 18.2,-47.4 0.1,-0.2 2.6,-4.7 7.1,-12.5 0.2,-2.6 0.3,-5.2 0.3,-7.8 0,-31.7 -12.2,-58.9 -35.2,-76.2 5.9,-1 14.6,-1.4 27.3,-1.4 h 58 c 1.2,-2 2.4,-3.9 3.6,-6 1.3,-2.5 2.8,-4.8 4.4,-7.1 4.3,-6.9 8.7,-14 13.2,-21.2 H 244.5 Z m -49.1,204.7 h -25.2 c -12,0 -13.7,-4.6 -13.7,-43.2 V 95.2 c 0,-38.6 1.7,-43.2 13.7,-43.2 h 25.2 c 38,0 56.6,39.2 56.6,92.6 0,52.4 -16.3,92.7 -56.6,92.7 z"
   id="path24"
   style="fill:#ffffff" />
	<path
   d="m 342.3,95.8 1.4,-2.4 c -0.5,0.8 -0.9,1.5 -1.4,2.3 0,0 0,0.1 0,0.1 z"
   id="path26"
   style="fill:#ffffff" />
	<path
   d="m 419,24.4 c -14.1,0 -26.7,2.7 -37.4,7.6 -0.1,0.2 -0.3,0.4 -0.4,0.6 -13.7,21.6 -26.4,42.3 -37.5,60.8 l -1.4,2.4 -5.4,9.8 c -4.7,7.9 -9.3,15.3 -13.7,22.3 -14.9,25.5 -24,41.8 -24.2,42.1 -0.1,0.2 -9.6,17.5 -14.7,34.7 -1.2,5.4 -1.9,10.8 -1.9,16.2 0,11.2 8.8,19.7 21.8,19.7 13,0 21.8,-8.5 21.8,-21.5 0,-40.3 -8.2,-73.6 15.5,-113.3 l 1.4,-2.2 c 3.6,33.7 28.9,56.5 66.6,56.5 16.1,0 30,-4.6 42.4,-16.1 -0.3,60.3 -10.8,92.8 -44.2,92.8 -13.3,0 -21.9,-4.6 -21.9,-9.9 0,-5.6 6.8,-9 6.8,-18.6 0,-10.2 -8,-17.9 -19.8,-17.9 -13.9,0 -21.3,7.7 -21.3,17.9 0,16.1 20.4,32.5 56.3,32.5 65.2,0 90,-56.9 90,-119 C 497.5,66.4 472.1,24.4 419,24.4 Z m 32.7,113.8 c -10.2,10.5 -21.3,15.5 -32.8,15.5 -23.2,0 -30.3,-21.3 -30.3,-61.2 0,-42.7 7.7,-64.3 30,-64.3 26.3,0 33.1,33.1 33.1,86.3 z"
   id="path28"
   style="fill:#ffffff" />
	<path
   d="m 350.4,60.9 c 1.4,-2.3 2.9,-4.7 4.4,-7.1 -1.6,2.2 -3.1,4.6 -4.4,7.1 z"
   id="path30"
   style="fill:#ffffff" />
</g>
</svg>
